<?xml version="1.0" encoding="UTF-8"?>
<svg width="2684px" height="1380px" viewBox="0 0 2684 1380" version="1.1" xmlns="http://www.w3.org/2000/svg" xmlns:xlink="http://www.w3.org/1999/xlink">
    <title>swirl</title>
    <defs>
        <linearGradient x1="50%" y1="7.91602024%" x2="50%" y2="100%" id="linearGradient-1">
            <stop stop-color="#1C202D" offset="0%"></stop>
            <stop stop-color="#4BAEE5" offset="100%"></stop>
        </linearGradient>
        <linearGradient x1="50%" y1="7.91602024%" x2="50%" y2="100%" id="linearGradient-2">
            <stop stop-color="#1C202D" offset="0%"></stop>
            <stop stop-color="#4BAEE5" offset="100%"></stop>
        </linearGradient>
        <linearGradient x1="50%" y1="7.91602024%" x2="50%" y2="100%" id="linearGradient-3">
            <stop stop-color="#1C202D" offset="0%"></stop>
            <stop stop-color="#4BAEE5" offset="100%"></stop>
        </linearGradient>
        <linearGradient x1="50%" y1="7.91602024%" x2="50%" y2="100%" id="linearGradient-4">
            <stop stop-color="#1C202D" offset="0%"></stop>
            <stop stop-color="#4BAEE5" offset="100%"></stop>
        </linearGradient>
        <linearGradient x1="50%" y1="7.91602024%" x2="50%" y2="100%" id="linearGradient-5">
            <stop stop-color="#1C202D" offset="0%"></stop>
            <stop stop-color="#4BAEE5" offset="100%"></stop>
        </linearGradient>
        <linearGradient x1="50%" y1="7.91602024%" x2="50%" y2="100%" id="linearGradient-6">
            <stop stop-color="#1C202D" offset="0%"></stop>
            <stop stop-color="#4BAEE5" offset="100%"></stop>
        </linearGradient>
        <linearGradient x1="50%" y1="7.91602024%" x2="50%" y2="100%" id="linearGradient-7">
            <stop stop-color="#1C202D" offset="0%"></stop>
            <stop stop-color="#4BAEE5" offset="100%"></stop>
        </linearGradient>
        <linearGradient x1="50%" y1="7.91602024%" x2="50%" y2="100%" id="linearGradient-8">
            <stop stop-color="#1C202D" offset="0%"></stop>
            <stop stop-color="#4BAEE5" offset="100%"></stop>
        </linearGradient>
        <linearGradient x1="50%" y1="7.91602024%" x2="50%" y2="100%" id="linearGradient-9">
            <stop stop-color="#1C202D" offset="0%"></stop>
            <stop stop-color="#4BAEE5" offset="100%"></stop>
        </linearGradient>
        <linearGradient x1="50%" y1="7.91602024%" x2="50%" y2="100%" id="linearGradient-10">
            <stop stop-color="#1C202D" offset="0%"></stop>
            <stop stop-color="#4BAEE5" offset="100%"></stop>
        </linearGradient>
        <linearGradient x1="50%" y1="7.91602024%" x2="50%" y2="100%" id="linearGradient-11">
            <stop stop-color="#1C202D" offset="0%"></stop>
            <stop stop-color="#4BAEE5" offset="100%"></stop>
        </linearGradient>
        <linearGradient x1="50%" y1="7.91602024%" x2="50%" y2="100%" id="linearGradient-12">
            <stop stop-color="#1C202D" offset="0%"></stop>
            <stop stop-color="#4BAEE5" offset="100%"></stop>
        </linearGradient>
        <linearGradient x1="50%" y1="7.91602024%" x2="50%" y2="100%" id="linearGradient-13">
            <stop stop-color="#1C202D" offset="0%"></stop>
            <stop stop-color="#4BAEE5" offset="100%"></stop>
        </linearGradient>
        <linearGradient x1="50%" y1="7.91602024%" x2="50%" y2="100%" id="linearGradient-14">
            <stop stop-color="#1C202D" offset="0%"></stop>
            <stop stop-color="#4BAEE5" offset="100%"></stop>
        </linearGradient>
        <linearGradient x1="50%" y1="7.91602024%" x2="50%" y2="100%" id="linearGradient-15">
            <stop stop-color="#1C202D" offset="0%"></stop>
            <stop stop-color="#4BAEE5" offset="100%"></stop>
        </linearGradient>
        <linearGradient x1="50%" y1="7.91602024%" x2="50%" y2="100%" id="linearGradient-16">
            <stop stop-color="#1C202D" offset="0%"></stop>
            <stop stop-color="#4BAEE5" offset="100%"></stop>
        </linearGradient>
        <linearGradient x1="50%" y1="7.91602024%" x2="50%" y2="100%" id="linearGradient-17">
            <stop stop-color="#1C202D" offset="0%"></stop>
            <stop stop-color="#4BAEE5" offset="100%"></stop>
        </linearGradient>
        <linearGradient x1="50%" y1="7.91602024%" x2="50%" y2="100%" id="linearGradient-18">
            <stop stop-color="#1C202D" offset="0%"></stop>
            <stop stop-color="#4BAEE5" offset="100%"></stop>
        </linearGradient>
        <linearGradient x1="50%" y1="7.91602024%" x2="50%" y2="100%" id="linearGradient-19">
            <stop stop-color="#1C202D" offset="0%"></stop>
            <stop stop-color="#4BAEE5" offset="100%"></stop>
        </linearGradient>
        <linearGradient x1="50%" y1="7.91602024%" x2="50%" y2="100%" id="linearGradient-20">
            <stop stop-color="#1C202D" offset="0%"></stop>
            <stop stop-color="#4BAEE5" offset="100%"></stop>
        </linearGradient>
        <linearGradient x1="50%" y1="7.91602024%" x2="50%" y2="100%" id="linearGradient-21">
            <stop stop-color="#1C202D" offset="0%"></stop>
            <stop stop-color="#4BAEE5" offset="100%"></stop>
        </linearGradient>
        <linearGradient x1="50%" y1="7.91602024%" x2="50%" y2="100%" id="linearGradient-22">
            <stop stop-color="#1C202D" offset="0%"></stop>
            <stop stop-color="#4BAEE5" offset="100%"></stop>
        </linearGradient>
        <linearGradient x1="50%" y1="7.91602024%" x2="50%" y2="100%" id="linearGradient-23">
            <stop stop-color="#1C202D" offset="0%"></stop>
            <stop stop-color="#4BAEE5" offset="100%"></stop>
        </linearGradient>
        <linearGradient x1="50%" y1="7.91602024%" x2="50%" y2="100%" id="linearGradient-24">
            <stop stop-color="#1C202D" offset="0%"></stop>
            <stop stop-color="#4BAEE5" offset="100%"></stop>
        </linearGradient>
        <linearGradient x1="50%" y1="7.91602024%" x2="50%" y2="100%" id="linearGradient-25">
            <stop stop-color="#1C202D" offset="0%"></stop>
            <stop stop-color="#4BAEE5" offset="100%"></stop>
        </linearGradient>
        <linearGradient x1="50%" y1="7.91602024%" x2="50%" y2="100%" id="linearGradient-26">
            <stop stop-color="#1C202D" offset="0%"></stop>
            <stop stop-color="#4BAEE5" offset="100%"></stop>
        </linearGradient>
        <linearGradient x1="50%" y1="7.91602024%" x2="50%" y2="100%" id="linearGradient-27">
            <stop stop-color="#1C202D" offset="0%"></stop>
            <stop stop-color="#4BAEE5" offset="100%"></stop>
        </linearGradient>
    </defs>
    <g id="Symbols" stroke="none" stroke-width="1" fill="none" fill-rule="evenodd" opacity="0.100000001">
        <g id="mobile/footer" transform="translate(1057.000000, 88.000000)" stroke-width="3">
            <g id="Group" transform="translate(-1056.000000, -86.000000)">
                <path d="M2681,51.3713214 C2568.65155,-108.143947 1700.07103,119.14071 1110.74567,521.524954 C520.860325,924.277205 463.134151,1391.31877 120.033003,1375.61445" id="Stroke-2239" stroke="url(#linearGradient-1)"></path>
                <path d="M2605.41199,53.7201695 C2497.38341,-99.6589729 1720.27999,131.473762 1130.45864,533.145992 C540.101317,935.186229 467.26362,1359.66693 115.418749,1348.21869" id="Stroke-2242" stroke="url(#linearGradient-2)"></path>
                <path d="M2529.82398,56.0698176 C2426.11526,-91.173199 1740.48095,143.799615 1150.16362,544.76783 C559.334308,946.096052 471.39309,1328.02388 110.804495,1320.82373" id="Stroke-2245" stroke="url(#linearGradient-3)"></path>
                <path d="M2454.23597,58.4202658 C2354.85512,-82.6866251 1760.68191,156.118267 1169.8766,556.390468 C578.5753,956.998676 475.522559,1296.37363 106.182241,1293.42157" id="Stroke-2248" stroke="url(#linearGradient-4)"></path>
                <path d="M2378.64796,60.7691139 C2283.57897,-74.2016513 1780.89087,168.45132 1189.58957,568.019506 C597.816291,967.907699 479.652029,1264.72178 101.567987,1266.03381" id="Stroke-2251" stroke="url(#linearGradient-5)"></path>
                <path d="M2303.05995,63.1187621 C2212.31882,-65.7158775 1801.09183,180.777173 1209.29455,579.641344 C617.049283,978.817523 483.781498,1233.07073 96.9537334,1238.63085" id="Stroke-2254" stroke="url(#linearGradient-6)"></path>
                <path d="M2227.47195,65.4684102 C2141.05068,-57.2381038 1821.30079,193.103025 1229.00753,591.263182 C636.290274,989.727346 487.910967,1201.42768 92.3314796,1211.23588" id="Stroke-2257" stroke="url(#linearGradient-7)"></path>
                <path d="M2151.88474,67.8180583 C2069.78333,-48.7523299 1841.50255,205.428878 1248.7213,602.893021 C655.524066,1000.62917 492.041237,1169.77663 87.7180255,1183.84092" id="Stroke-2260" stroke="url(#linearGradient-8)"></path>
                <path d="M2076.29673,70.1677065 C1998.51519,-40.2665561 1861.71151,217.75473 1268.43428,614.514859 C674.765057,1011.53899 496.162706,1138.13359 83.1037714,1156.44596" id="Stroke-2263" stroke="url(#linearGradient-9)"></path>
                <path d="M2000.70872,72.5173546 C1927.24704,-31.7807822 1881.91248,230.080583 1288.13926,626.136697 C694.006049,1022.44882 500.300176,1106.48254 78.4815176,1129.051" id="Stroke-2266" stroke="url(#linearGradient-10)"></path>
                <path d="M1925.11991,74.8670028 C1855.9861,-23.2950084 1902.12064,242.406435 1307.85143,637.758535 C713.23824,1033.35064 504.428845,1074.83949 73.8664636,1101.65604" id="Stroke-2269" stroke="url(#linearGradient-11)"></path>
                <path d="M1849.5327,77.2166509 C1784.71875,-14.8092345 1922.3224,254.732288 1327.56521,649.388373 C732.480032,1044.26046 508.551115,1043.18844 69.2530095,1074.26108" id="Stroke-2272" stroke="url(#linearGradient-12)"></path>
                <path d="M1773.94469,79.565499 C1713.4506,-6.32426066 1942.53136,267.05734 1347.27019,661.009411 C751.713023,1055.16949 512.680584,1011.53659 64.6307557,1046.86532" id="Stroke-2275" stroke="url(#linearGradient-13)"></path>
                <path d="M1698.35668,81.9159472 C1642.18246,2.16231321 1962.73232,279.383993 1366.98316,672.63205 C770.954015,1066.08011 516.810053,979.886344 60.0165017,1019.47116" id="Stroke-2278" stroke="url(#linearGradient-14)"></path>
                <path d="M1622.76867,84.2655953 C1570.91431,10.6400869 1982.94128,291.709845 1386.69614,684.261888 C790.187006,1076.98193 520.939523,948.243296 55.4022476,992.076194" id="Stroke-2281" stroke="url(#linearGradient-15)"></path>
                <path d="M1547.18066,86.6152434 C1499.64617,19.1258607 2003.14224,304.035698 1406.40112,695.883726 C809.427998,1087.89176 525.068992,916.592248 50.7799938,964.673233" id="Stroke-2284" stroke="url(#linearGradient-16)"></path>
                <path d="M1471.59265,88.9648916 C1428.37802,27.6116346 2023.3512,316.36155 1426.11409,707.505564 C828.668989,1098.80158 529.198461,884.949199 46.1657398,937.278271" id="Stroke-2287" stroke="url(#linearGradient-17)"></path>
                <path d="M1396.00464,91.3137397 C1357.11787,36.0966084 2043.55216,328.686603 1445.82707,719.126602 C847.901981,1109.7106 533.327931,853.297351 41.5514857,909.88251" id="Stroke-2290" stroke="url(#linearGradient-18)"></path>
                <path d="M1320.41664,93.6641879 C1285.84973,44.5831823 2063.76112,341.013255 1465.53205,730.75724 C867.142972,1120.61323 537.4574,821.647102 36.9292319,882.488349" id="Stroke-2293" stroke="url(#linearGradient-19)"></path>
                <path d="M1244.82863,96.013836 C1214.58158,53.0689562 2083.96208,353.339108 1485.24502,742.379078 C886.375964,1131.52305 541.58687,790.004054 32.3149779,855.093388" id="Stroke-2296" stroke="url(#linearGradient-20)"></path>
                <path d="M1169.24142,98.3626841 C1143.31424,61.55393 2104.17185,365.66416 1504.9588,754.008117 C905.617755,1142.43207 545.717139,758.352206 27.7015238,827.697626" id="Stroke-2299" stroke="url(#linearGradient-21)"></path>
                <path d="M1093.65261,100.713132 C1072.04529,70.0405039 2124.37201,377.990813 1524.67097,765.630755 C924.849947,1153.3427 549.845808,726.701957 23.07847,800.303465" id="Stroke-2302" stroke="url(#linearGradient-22)"></path>
                <path d="M1018.0654,103.06278 C1000.77795,78.5262777 2144.58177,390.316666 1544.37675,777.252593 C944.091738,1164.24452 553.976078,695.050909 18.465016,772.908504" id="Stroke-2305" stroke="url(#linearGradient-23)"></path>
                <path d="M942.477389,105.411629 C929.517799,87.0032514 2164.78273,402.641718 1564.08973,788.873631 C963.32473,1175.15354 558.105547,663.407061 13.8507619,745.512743" id="Stroke-2308" stroke="url(#linearGradient-24)"></path>
                <path d="M866.88938,107.761277 C858.249654,95.4890252 2184.98369,414.967571 1583.8027,800.503469 C982.565721,1186.06337 562.235017,631.756012 9.2285081,718.117781" id="Stroke-2311" stroke="url(#linearGradient-25)"></path>
                <path d="M791.301371,110.110925 C786.981508,103.974799 2205.19265,427.293423 1603.50768,812.125307 C1001.80671,1196.97319 566.364486,600.112964 4.61425405,690.72282" id="Stroke-2314" stroke="url(#linearGradient-26)"></path>
                <path d="M715.713362,112.460573 C715.713362,112.460573 2225.40161,439.619276 1623.22066,823.747146 C1021.0397,1207.87502 570.493955,568.461915 0,663.319859" id="Stroke-2317" stroke="url(#linearGradient-27)"></path>
            </g>
        </g>
    </g>
</svg>