<?xml version="1.0" encoding="UTF-8"?>
<svg width="14px" height="13px" viewBox="0 0 14 13" version="1.1" xmlns="http://www.w3.org/2000/svg" xmlns:xlink="http://www.w3.org/1999/xlink">
    <title>icons/arrow-right</title>
    <g id="Symbols" stroke="none" stroke-width="1" fill="none" fill-rule="evenodd">
        <g id="buttons/text-button" transform="translate(-128.000000, -3.000000)" fill="#4BAEE5" fill-rule="nonzero">
            <g id="icons/arrow-right" transform="translate(128.000000, 3.093750)">
                <path d="M13.9872631,5.85466777 L13.9979419,5.95877576 L13.988,6.01613565 L14,6.01617816 L13.9902006,6.15657995 L13.9902006,6.15657995 L13.9591213,6.30009647 L13.9083525,6.43487483 L13.8632073,6.5219419 L13.8053051,6.61055907 C13.7751011,6.65164952 13.7429223,6.68878534 13.7038522,6.72723475 L8.70717881,11.7375468 C8.3166943,12.1290947 7.68352932,12.1291593 7.29296526,11.7376912 L7.20976705,11.643255 C6.9047022,11.2500068 6.932374,10.681344 7.2928212,10.3199151 L10.586,7.01765219 L0.9999112,7.01763344 C0.4476419,7.01758642 0,6.56872616 0,6.01507181 L0.0067288,5.89815285 C0.064503,5.39954635 0.4872383,5.01255165 1.0000849,5.0125953 L10.587,5.01261407 L7.29289778,1.71141165 C6.9023689,1.31989904 6.9023689,0.685139085 7.29289322,0.293631041 C7.68341752,-0.0978770135 8.31658249,-0.0978770135 8.70710679,0.293631041 L13.7158576,5.31534272 L13.7708977,5.37710715 L13.8215053,5.44398828 L13.8668465,5.51581544 L13.9050725,5.58927726 L13.931327,5.65090382 L13.931327,5.65090382 L13.9661088,5.75695226 L13.9872631,5.85466777 Z"></path>
            </g>
        </g>
    </g>
</svg>