<?xml version="1.0" encoding="UTF-8"?>
<svg width="64px" height="64px" viewBox="0 0 64 64" version="1.1" xmlns="http://www.w3.org/2000/svg" xmlns:xlink="http://www.w3.org/1999/xlink">
    <title>icons/facebook</title>
    <g id="Styles" stroke="none" stroke-width="1" fill="none" fill-rule="evenodd">
        <g id="Icons" transform="translate(-1265.000000, -892.000000)" fill="#fff">
            <g id="icon" transform="translate(1247.000000, 874.000000)">
                <g id="icons/facebook" transform="translate(18.000000, 18.000000)">
                    <path d="M64,32.1955629 C64,14.4144314 49.673125,0 32,0 C14.326875,0 0,14.4144314 0,32.1955629 C0,48.265299 11.7019375,61.584704 27,64 L27,41.5020928 L18.875,41.5020928 L18.875,32.1955629 L27,32.1955629 L27,25.1024779 C27,17.033465 31.777375,12.5763918 39.086875,12.5763918 C42.5879375,12.5763918 46.25,13.2052113 46.25,13.2052113 L46.25,21.1283381 L42.214875,21.1283381 C38.2396875,21.1283381 37,23.6101004 37,26.1561909 L37,32.1955629 L45.875,32.1955629 L44.45625,41.5020928 L37,41.5020928 L37,64 C52.2980625,61.584704 64,48.265299 64,32.1955629"></path>
                </g>
            </g>
        </g>
    </g>
</svg>