<?xml version="1.0" encoding="UTF-8"?>
<svg width="64px" height="64px" viewBox="0 0 64 64" version="1.1" xmlns="http://www.w3.org/2000/svg" xmlns:xlink="http://www.w3.org/1999/xlink">
    <title>icons/instagram-filled</title>
    <g id="Styles" stroke="none" stroke-width="1" fill="none" fill-rule="evenodd">
        <g id="Icons" transform="translate(-1537.000000, -892.000000)" fill="#fff" fill-rule="nonzero">
            <g id="icon" transform="translate(1519.000000, 874.000000)">
                <g id="icons/instagram-filled" transform="translate(18.000000, 18.000000)">
                    <path d="M47.6834746,0 C47.6846268,0.0113387099 47.6888592,0.0221469006 47.6957141,0.0312557596 C49.7641784,0.0285378675 51.827203,0.142689337 53.8439897,0.686267765 C56.0351333,1.2742264 58.0378152,2.4161775 59.6590808,4.00209617 C60.7323797,5.03441001 61.6319772,6.23299932 62.3231976,7.55166331 C62.9868469,8.80325264 63.3581097,10.1526861 63.6219375,11.5374521 C63.8280719,12.671539 63.9336499,13.8215914 63.9374429,14.9742267 L63.9378288,15.0366558 C63.9379029,15.0531687 63.9379819,15.0726936 63.9380655,15.0951675 L63.9389429,15.3753526 C63.9392759,15.4941537 63.9396485,15.6377936 63.940058,15.8045702 L63.9409252,16.1684683 C63.9468698,18.7277688 63.9587157,25.0054298 63.9702514,31.2622146 L63.9720228,32.2241279 C63.981743,37.5081978 63.991013,42.6400283 63.9960696,45.354292 L63.9969417,45.8206504 C63.9973537,46.0400053 63.997729,46.2382457 63.9980648,46.4136696 L63.9989507,46.8697898 C63.9990353,46.9124861 63.9991152,46.9524582 63.9991903,46.9896429 L63.999943,47.3304856 L64,47.3443221 L64,47.7193912 C63.9809609,49.5988136 63.8748858,51.4728003 63.4465056,53.319608 C62.7923759,56.1448569 61.3440428,58.484962 59.1980621,60.3983581 C57.3891698,62.0214051 55.1611457,63.1051805 52.7669195,63.5266519 C51.5008958,63.769698 50.2166823,63.9060718 48.9278171,63.9343357 C39.1716283,64.0647945 29.4140796,63.953361 19.6578908,63.9941294 C18.314273,64 16.973375,63.9655915 15.6297571,63.9574378 C13.4769767,63.9452073 11.3554748,63.6910844 9.29924991,63.0279187 C7.90306936,62.5644251 6.59973991,61.8582602 5.44926797,60.9419365 C3.83756221,59.6935888 2.52310361,58.1034639 1.60064597,56.2861872 C0.907078048,54.9299591 0.543974841,53.4745278 0.289666603,51.9796872 C0.0503176728,50.571819 0.0380782389,49.1381309 0,47.7180323 L0.0217589936,16.2353287 C0.0244788679,14.1806022 0.141433459,12.1408242 0.677248677,10.1404556 C1.26909512,7.94126588 2.42016697,5.93245436 4.01861414,4.30921799 C5.41306179,2.85063249 7.12244305,1.7295378 9.01638299,1.03144007 C10.2341522,0.607105939 11.4967935,0.324392847 12.779329,0.188893504 C13.9488749,0.0434862742 15.1279403,0.0529988967 16.3042859,0.0312557596 L16.3042859,0 Z M41.0755403,8.28549418 L22.9230998,8.28549418 C14.8350829,8.29522854 8.28087891,14.8446563 8.27113746,22.9267791 L8.27113746,41.0659913 C8.28087891,49.1481141 14.8350829,55.6975419 22.9230998,55.7072762 L41.0755403,55.7072762 C49.163026,55.6967933 55.7164028,49.1475844 55.7261427,41.0659913 L55.7275026,22.9267791 C55.7177612,14.8446563 49.1635571,8.29522854 41.0755403,8.28549418 Z M41.0755403,12.3582556 C46.9138352,12.3649954 51.6450264,17.0927387 51.6517711,22.9267791 L51.6517711,41.0659913 C51.6450264,46.9000317 46.9138352,51.6277751 41.0755403,51.6345149 L22.9230998,51.6345149 C17.0848048,51.6277751 12.3536137,46.9000317 12.346869,41.0659913 L12.346869,22.9267791 C12.3536137,17.0927387 17.0848048,12.3649954 22.9230998,12.3582556 Z M31.99932,20.2143228 C25.4875213,20.2143228 20.2086653,25.4893318 20.2086653,31.9963852 C20.2086653,38.5034386 25.4875213,43.7784476 31.99932,43.7784476 C38.5080121,43.7709589 43.7824805,38.5003341 43.7899747,31.9963852 C43.7899747,25.4893318 38.5111188,20.2143228 31.99932,20.2143228 Z M31.99932,24.2870842 C36.25798,24.2923255 39.7089981,27.7408287 39.7142432,31.9963852 C39.7142432,36.2541146 36.2601545,39.7056863 31.99932,39.7056863 C27.7384856,39.7056863 24.2843968,36.2541146 24.2843968,31.9963852 C24.2843968,27.7386558 27.7384856,24.2870842 31.99932,24.2870842 Z M44.9527247,16.1809708 C43.3452106,16.1824721 42.0430689,17.4854882 42.0438183,19.0918314 C42.0445684,20.6981746 43.347926,21.9999763 44.9554408,21.9999779 C45.7285953,22.0013369 46.4700042,21.694056 47.0161965,21.1472421 C47.5623888,20.6004281 47.8685106,19.8589872 47.8670712,19.0863975 C47.8648137,17.4800557 46.5602389,16.1794721 44.9527247,16.1809708 Z"></path>
                </g>
            </g>
        </g>
    </g>
</svg>