<?xml version="1.0" encoding="UTF-8"?>
<svg width="64px" height="52px" viewBox="0 0 64 52" version="1.1" xmlns="http://www.w3.org/2000/svg" xmlns:xlink="http://www.w3.org/1999/xlink">
    <title>icons/twitter</title>
    <g id="Styles" stroke="none" stroke-width="1" fill="none" fill-rule="evenodd">
        <g id="Icons" transform="translate(-449.000000, -1044.000000)" fill="#fff" fill-rule="nonzero">
            <g id="icon" transform="translate(431.000000, 1020.000000)">
                <g id="icons/twitter" transform="translate(18.000000, 24.000000)">
                    <path d="M64,6.15241823 C61.6444406,7.19645799 59.1169593,7.90451381 56.4613733,8.22062323 C59.1729071,6.59645678 61.2485184,4.02030097 62.2322585,0.960043772 C59.6887773,2.4641263 56.8812433,3.5562833 53.8897613,4.1483347 C51.4942541,1.59215801 48.086876,0 44.3075234,0 C37.0568972,0 31.1779856,5.88045116 31.1779856,13.1290013 C31.1779856,14.1570368 31.2939596,15.1611184 31.51796,16.1212667 C20.6080337,15.5731485 10.9338741,10.3447907 4.45909225,2.40010943 C3.32727341,4.33630579 2.68340308,6.59237728 2.68340308,9.00064572 C2.68340308,13.5570356 5.00298857,17.5773366 8.52236687,19.9294334 C6.37072936,19.8574667 4.34709207,19.2654153 2.57548133,18.2813129 L2.57548133,18.44533 C2.57548133,24.805803 7.10265213,30.1141819 13.1054855,31.3223433 C12.0056667,31.618369 10.8459262,31.7823861 9.64613341,31.7823861 C8.79834117,31.7823861 7.97847055,31.6983901 7.17459996,31.538348 C8.84623668,36.758756 13.693408,40.5549979 19.4363716,40.6590776 C14.9451747,44.1793776 9.28221125,46.2715366 3.13140381,46.2715366 C2.07163737,46.2715366 1.02776639,46.2075197 0,46.0915153 C5.8109376,49.823845 12.7096678,52 20.1242682,52 C44.2757325,52 57.4773227,31.9904409 57.4773227,14.6371633 L57.4332965,12.9370553 C60.0127517,11.0967796 62.2442847,8.7846411 64,6.15241823 Z"></path>
                </g>
            </g>
        </g>
    </g>
</svg>