<?xml version="1.0" encoding="UTF-8"?>
<svg width="64px" height="45px" viewBox="0 0 64 45" version="1.1" xmlns="http://www.w3.org/2000/svg" xmlns:xlink="http://www.w3.org/1999/xlink">
    <title>icons/youtube</title>
    <g id="Styles" stroke="none" stroke-width="1" fill="none" fill-rule="evenodd">
        <g id="Icons" transform="translate(-721.000000, -1048.000000)" fill="#fff">
            <g id="icon" transform="translate(703.000000, 1020.000000)">
                <g id="icons/youtube" transform="translate(18.000000, 28.000000)">
                    <path d="M25.4545455,31.9968145 L25.4545455,13.0031855 L42.1818182,22.5003629 L25.4545455,31.9968145 Z M62.6625455,7.02689516 C61.9265455,4.26084677 59.7578182,2.08270161 57.0043636,1.34346774 C52.0134545,0 32,0 32,0 C32,0 11.9865455,0 6.99563636,1.34346774 C4.24218182,2.08270161 2.07345455,4.26084677 1.33745455,7.02689516 C0,12.0400403 0,22.5 0,22.5 C0,22.5 0,32.9595968 1.33745455,37.9731048 C2.07345455,40.7391532 4.24218182,42.9172984 6.99563636,43.6568952 C11.9865455,45 32,45 32,45 C32,45 52.0134545,45 57.0043636,43.6568952 C59.7578182,42.9172984 61.9265455,40.7391532 62.6625455,37.9731048 C64,32.9595968 64,22.5 64,22.5 C64,22.5 64,12.0400403 62.6625455,7.02689516 L62.6625455,7.02689516 Z"></path>
                </g>
            </g>
        </g>
    </g>
</svg>