<?xml version="1.0" encoding="UTF-8"?>
<svg width="132px" height="60px" viewBox="0 0 132 60" version="1.1" xmlns="http://www.w3.org/2000/svg" xmlns:xlink="http://www.w3.org/1999/xlink">
    <title>logos/ineratec</title>
    <g id="Unternehmen" stroke="none" stroke-width="1" fill="none" fill-rule="evenodd">
        <g id="m_Unternehmen-–-Uebersicht" transform="translate(-20.000000, -20.000000)">
            <g id="logos/ineratec" transform="translate(20.000000, 20.000000)">
                <g id="logos/ineratec-icon" transform="translate(32.954448, 0.000000)">
                    <path d="M61.8389035,20.4477163 C61.6784125,20.2826414 61.4180519,20.277152 61.2462916,20.431248 C58.94618,22.5027217 56.83687,23.7205899 53.145189,23.4022032 C49.3412032,23.074014 46.2359166,19.5466663 46.2359166,15.6652507 L46.2359166,14.518353 C46.2359166,9.69001154 49.6000095,5.74546753 54.269403,5.74546753 C56.8998229,5.74546753 58.9947547,6.8339421 61.0290653,8.63133671 C61.2089861,8.79013793 61.4817819,8.77523806 61.6376097,8.59251863 L64.9686718,4.6871848 C65.1171162,4.51348371 65.1070127,4.25116761 64.9422471,4.09315059 C62.4237435,1.67270624 59.338664,0.0313681432 54.3094286,0.0313681432 C48.4361585,0.0313681432 43.788915,3.15681151 41.4732595,7.72636577 C41.2696341,8.12905431 40.6680844,7.98044773 40.6680844,7.52835437 L40.6680844,0.432096173 C40.6680844,0.193698284 40.476117,0 40.2398494,0 L34.7788817,0 C34.5422255,0 34.3506467,0.193698284 34.3506467,0.432096173 L34.3506467,28.7657636 C34.3506467,29.0045536 34.5422255,29.1978598 34.7788817,29.1978598 L40.2398494,29.1978598 C40.476117,29.1978598 40.6680844,29.0045536 40.6680844,28.7657636 L40.6680844,21.7330259 C40.6680844,21.2813247 41.2688569,21.132326 41.4732595,21.5338382 C43.7939667,26.1018241 48.4303295,29.1664917 54.0719953,29.1664917 C59.2364627,29.1664917 62.3677854,27.3604708 65.1454839,24.4408809 C65.3048091,24.2726692 65.3020889,24.0044716 65.1400435,23.8382204 C64.4199714,23.0987165 62.5562554,21.1844755 61.8389035,20.4477163" id="Fill-1" fill="#4BAEE5"></path>
                    <path d="M24.5955545,7.5315696 C24.5955545,7.98327087 23.9940048,8.13187745 23.7899909,7.72958101 C21.4743354,3.16002675 16.8270919,0.0345833779 10.9538217,0.0345833779 C5.92458641,0.0345833779 2.83950688,1.67592147 0.321003242,4.09636582 C0.156626288,4.25438284 0.14652274,4.51669894 0.294578578,4.69040003 L3.62602924,8.59573386 C3.78185704,8.7784533 4.05465283,8.79335317 4.23457371,8.63455194 C6.26849564,6.83715733 8.36381606,5.74868277 10.9938473,5.74868277 C15.6636295,5.74868277 19.0277224,9.69283467 19.0277224,14.5215682 L19.0273338,15.668466 C19.0273338,19.5498816 15.9220472,23.0772293 12.1180613,23.4054185 C8.42638034,23.7238051 6.31745899,22.505937 4.01695883,20.4340711 C3.84558711,20.2799751 3.58483785,20.2858566 3.42434688,20.4509315 C2.70699497,21.1876908 0.843278955,23.1019317 0.12320686,23.8414357 C-0.0384499082,24.0080789 -0.0419472902,24.2758844 0.118155086,24.4440961 C2.895465,27.363686 6.02639909,29.1697069 11.1916437,29.1697069 C16.8333095,29.1697069 21.4692836,26.1050393 23.7899909,21.5374455 C23.9943934,21.1355412 24.5955545,21.2845399 24.5955545,21.7358491 L24.5955545,28.7689789 C24.5955545,29.0073768 24.7871334,29.201075 25.0234009,29.201075 L30.4843686,29.201075 C30.7206362,29.201075 30.9129922,29.0073768 30.9129922,28.7689789 L30.9129922,0.435311407 C30.9129922,0.196521417 30.7206362,0.00321523468 30.4843686,0.00321523468 L25.0234009,0.00321523468 C24.7871334,0.00321523468 24.5955545,0.196521417 24.5955545,0.435311407 L24.5955545,7.5315696 Z" id="Fill-3" fill="#1C202D"></path>
                </g>
                <path d="M0,59.5316494 L3.92494659,59.5316494 L3.92494659,41.6481429 L0,41.6481429 L0,59.5316494 Z M8.38485519,41.6480649 L12.0042647,41.6480649 L20.3649412,52.6588442 L20.3649412,41.6480649 L24.238965,41.6480649 L24.238965,59.5315714 L20.9002142,59.5315714 L12.2588789,48.1623506 L12.2588789,59.5315714 L8.38485519,59.5315714 L8.38485519,41.6480649 Z M28.5192831,41.6480649 L41.9776866,41.6480649 L41.9776866,45.1479351 L32.4189626,45.1479351 L32.4189626,48.7755974 L40.8309507,48.7755974 L40.8309507,52.2758571 L32.4189626,52.2758571 L32.4189626,56.0313117 L42.1047994,56.0313117 L42.1047994,59.5315714 L28.5192831,59.5315714 L28.5192831,41.6480649 Z M53.4970958,50.3343506 C55.4084519,50.3343506 56.5046537,49.312013 56.5046537,47.8046104 L56.5046537,47.7535714 C56.5046537,46.0677273 55.332262,45.1988961 53.4205172,45.1988961 L49.520449,45.1988961 L49.520449,50.3343506 L53.4970958,50.3343506 Z M45.5955024,41.647987 L53.7517101,41.647987 C56.0203036,41.647987 57.7785024,42.2865584 58.9516715,43.462013 C59.9125066,44.425039 60.4450806,45.7699736 60.4795179,47.3820865 L60.4813006,47.6008442 C60.4813006,50.4874675 58.9260157,52.3011039 56.6574223,53.1442208 L61.0165736,59.5314935 L56.4284638,59.5314935 L52.6045855,53.8085065 L49.520449,53.8085065 L49.520449,59.5314935 L45.5955024,59.5314935 L45.5955024,41.647987 Z M74.2684869,52.0455584 L71.8980478,46.2462078 L69.5272199,52.0455584 L74.2684869,52.0455584 Z M70.1394602,41.5198442 L73.7580923,41.5198442 L81.405849,59.5315325 L77.3020893,59.5315325 L75.6702258,55.5201039 L68.125481,55.5201039 L66.4940062,59.5315325 L62.492481,59.5315325 L70.1394602,41.5198442 Z" id="Shape" fill="#1C202D"></path>
                <path d="M86.0174766,45.2756883 L80.5873905,45.2756883 L80.5873905,41.648026 L95.3717318,41.648026 L95.3717318,45.2756883 L89.9424231,45.2756883 L89.9424231,59.5315325 L86.0174766,59.5315325 L86.0174766,45.2756883 Z M98.3774626,41.6480649 L111.836255,41.6480649 L111.836255,45.1479351 L102.277531,45.1479351 L102.277531,48.7755974 L110.688742,48.7755974 L110.688742,52.2758571 L102.277531,52.2758571 L102.277531,56.0313117 L111.963368,56.0313117 L111.963368,59.5315714 L98.3774626,59.5315714 L98.3774626,41.6480649 Z M114.662939,50.6405455 L114.662939,50.5895065 C114.662939,45.5058701 118.487207,41.3413247 123.966661,41.3413247 C127.331456,41.3413247 129.345046,42.4653506 131.001788,44.1005455 L128.504236,46.9871688 C127.127376,45.7353506 125.725637,44.968987 123.941782,44.968987 C120.97504,44.968987 118.826609,47.4048794 118.768304,50.4124372 L118.767088,50.5895065 C118.767088,53.654961 120.882524,56.2104156 123.941782,56.2104156 C125.981028,56.2104156 127.229221,55.3926234 128.631349,54.1150909 L131.129678,56.6440519 C129.294512,58.6111948 127.255266,59.8376883 123.813892,59.8376883 C118.563396,59.8376883 114.662939,55.7756104 114.662939,50.6405455 Z" id="Shape" fill="#4BAEE5"></path>
            </g>
        </g>
    </g>
</svg>