<?xml version="1.0" encoding="UTF-8"?>
<svg width="200px" height="89px" viewBox="0 0 200 89" version="1.1" xmlns="http://www.w3.org/2000/svg" xmlns:xlink="http://www.w3.org/1999/xlink">
    <title>logos/ineratec-icon-negativ</title>
    <g id="Styles" stroke="none" stroke-width="1" fill="none" fill-rule="evenodd">
        <g id="Icons" transform="translate(-519.000000, -2097.000000)">
            <g id="logos" transform="translate(295.000000, 1960.000000)">
                <g id="logos/ineratec-icon-negativ" transform="translate(224.000000, 137.000000)">
                    <path d="M189.44447,62.015027 C188.952803,61.5143784 188.155184,61.4977297 187.628994,61.9650811 C180.582565,68.2475676 174.12066,71.9411892 162.811137,70.9755676 C151.157565,69.9802162 141.64447,59.2822703 141.64447,47.5104865 L141.64447,44.0321081 C141.64447,29.3884324 151.950422,17.4251892 166.255184,17.4251892 C174.313518,17.4251892 180.731375,20.7263784 186.963518,26.1776216 C187.514708,26.6592432 188.350422,26.6140541 188.827803,26.0598919 L199.032565,14.2155676 C199.487327,13.6887568 199.456375,12.8931892 198.951613,12.4139459 C191.236137,5.07308108 181.784946,0.0951351351 166.377803,0.0951351351 C148.384946,0.0951351351 134.148041,9.57416216 127.053994,23.432973 C126.430184,24.6542703 124.587327,24.2035676 124.587327,22.8324324 L124.587327,1.31048649 C124.587327,0.587459459 123.999232,0 123.275422,0 L106.54566,0 C105.82066,0 105.233756,0.587459459 105.233756,1.31048649 L105.233756,87.2424865 C105.233756,87.9667027 105.82066,88.552973 106.54566,88.552973 L123.275422,88.552973 C123.999232,88.552973 124.587327,87.9667027 124.587327,87.2424865 L124.587327,65.9131892 C124.587327,64.5432432 126.427803,64.0913514 127.053994,65.3090811 C134.163518,79.1631351 148.367089,88.4578378 165.650422,88.4578378 C181.471851,88.4578378 191.064708,82.9804324 199.574232,74.1257297 C200.062327,73.6155676 200.053994,72.8021622 199.557565,72.2979459 C197.351613,70.0551351 191.642089,64.2495135 189.44447,62.015027" id="Fill-1" fill="#FFFFFF"></path>
                    <path d="M75.3488748,22.8421838 C75.3488748,24.2121297 73.5060176,24.6628324 72.8810176,23.4427243 C65.78697,9.58391351 51.5500652,0.104886486 33.5572081,0.104886486 C18.1500652,0.104886486 8.69887476,5.08283243 0.983398567,12.4236973 C0.479827139,12.9029405 0.448874758,13.6985081 0.902446186,14.2253189 L11.1083986,26.0696432 C11.5857795,26.6238054 12.4214938,26.6689946 12.9726843,26.187373 C19.2036367,20.7361297 25.6226843,17.4349405 33.6798271,17.4349405 C47.9857795,17.4349405 58.2917319,29.3969946 58.2917319,44.0418595 L58.2905414,47.5202378 C58.2905414,59.2920216 48.7774462,69.9899676 37.1238748,70.9853189 C25.8143509,71.9509405 19.3536367,68.2573189 12.3060176,61.9736432 C11.7810176,61.5062919 10.9822081,61.5241297 10.4905414,62.0247784 C8.29292238,64.2592649 2.58339857,70.0648865 0.377446186,72.3076973 C-0.117791909,72.8131027 -0.128506194,73.6253189 0.361969996,74.1354811 C8.87030333,82.9901838 18.46197,88.4675892 34.2857795,88.4675892 C51.5691129,88.4675892 65.7714938,79.1728865 72.8810176,65.3200216 C73.5072081,64.1011027 75.3488748,64.5529946 75.3488748,65.9217514 L75.3488748,87.2522378 C75.3488748,87.9752649 75.9357795,88.5627243 76.659589,88.5627243 L93.3893509,88.5627243 C94.1131605,88.5627243 94.7024462,87.9752649 94.7024462,87.2522378 L94.7024462,1.32023784 C94.7024462,0.596021622 94.1131605,0.00975135135 93.3893509,0.00975135135 L76.659589,0.00975135135 C75.9357795,0.00975135135 75.3488748,0.596021622 75.3488748,1.32023784 L75.3488748,22.8421838 Z" id="Fill-3" fill="#4BAEE5"></path>
                </g>
            </g>
        </g>
    </g>
</svg>